<svg width="432" height="397" viewBox="0 0 432 397" fill="none" xmlns="http://www.w3.org/2000/svg">
<path fill-rule="evenodd" clip-rule="evenodd" d="M287.59 59.1139C283.853 62.1907 278.334 61.7012 275.225 57.9251C272.116 54.1489 272.64 48.6595 276.413 45.5477L329.054 2.01693C332.791 -1.05995 338.31 -0.570443 341.419 3.17075C344.493 6.91195 344.004 12.4363 340.231 15.5482L287.59 59.1139ZM31.8608 212.503C26.0623 214.216 21.8007 217.992 18.9713 222.992C15.7227 228.761 14.2556 236.209 14.3604 244.181C14.3954 247.607 14.7447 251.139 15.3385 254.705C15.9323 258.306 16.8405 261.908 17.9583 265.439C19.111 269.005 20.5083 272.467 22.15 275.789C23.7569 279.005 25.5733 282.082 27.5643 284.879C32.4547 291.697 38.5327 297.117 45.5538 299.844C51.6667 302.257 58.5481 302.606 65.9535 300.054L66.0932 300.019C66.9315 299.739 67.7699 299.634 68.6082 299.704C69.202 299.739 69.7959 299.844 70.3897 300.019L70.5644 299.949C72.5554 299.285 74.6163 298.655 76.6423 298.026L82.1964 296.313C84.2224 295.718 86.1436 295.159 87.96 294.634C89.7415 294.11 91.5579 293.62 93.4092 293.131C95.3304 292.606 97.2516 292.921 98.8584 293.83L99.0331 293.935C100.535 294.844 101.688 296.313 102.212 298.166C102.317 298.48 102.352 298.725 102.386 299.005C102.875 301.208 103.469 303.48 103.888 305.683C107.696 322.746 111.399 339.179 116.324 352.501C116.743 353.829 117.267 355.123 117.756 356.452C119.258 360.647 120.83 364.983 122.577 368.934C124.253 372.78 126.035 376.206 128.061 378.724V378.759C129.563 380.647 131.309 381.836 133.37 381.941C135.641 382.046 138.47 380.962 142.033 378.199C143.57 376.766 144.967 375.542 146.399 374.318L146.714 374.039C150.906 370.402 155.097 366.801 156.914 361.871C156.634 361.661 156.32 361.451 155.971 361.277C155.167 360.822 154.154 360.368 153.141 359.948L153.036 359.913C149.299 358.34 145.596 356.731 142.906 353.375C140.182 349.983 138.715 345.053 139.728 337.011C139.763 336.522 139.832 336.102 139.902 335.683C139.972 335.193 140.042 334.704 140.077 334.214C140.531 330.578 140.776 328.69 140.636 328.165V328.095C140.531 327.956 139.798 327.431 138.33 326.067C137.911 325.683 137.457 325.298 137.073 324.879C134.907 322.851 133.37 320.438 132.392 317.781C131.309 314.844 130.89 311.627 130.925 308.271C130.96 304.984 131.449 301.557 132.183 298.306C133.091 294.355 134.383 290.579 135.676 287.467L135.746 287.362C136.235 286.208 137.003 285.264 137.911 284.565C138.889 283.795 140.077 283.306 141.3 283.131H141.369C167.812 279.46 189.155 279.949 207.075 282.257C223.248 284.355 236.556 287.886 248.398 291.243C239.351 280.928 231.037 268.796 223.527 255.579C213.851 238.516 205.538 219.601 198.831 200.44C192.054 181.07 186.919 161.42 183.706 143.098C181.016 127.714 179.654 113.239 179.828 100.687C169.733 115.197 156.145 132.819 136.165 150.581C113.355 170.825 82.1964 191.245 38.3231 207.398C37.869 207.538 37.4149 207.713 36.9608 207.853L36.7512 208.202C36.7512 208.202 36.7861 208.167 35.9827 209.426L35.9128 209.531C35.4587 210.23 34.8998 210.825 34.2711 211.314C33.5725 211.839 32.804 212.258 31.9656 212.503H31.8608ZM231.142 239.565C237.709 252.188 244.975 263.936 252.834 274.11C260.309 283.76 268.344 292.047 276.797 298.306L277.67 298.376C278.089 298.411 278.508 298.411 278.858 298.376H278.997C279.661 298.341 280.325 298.236 281.023 298.026C281.687 297.816 282.386 297.501 283.119 297.082C284.901 295.264 286.368 292.886 287.556 290.089C288.883 287.012 289.861 283.376 290.49 279.32C292.411 267.327 291.503 251.978 288.534 235.02C285.285 216.489 279.521 196.105 272.256 176.14C265.13 156.525 256.537 137.364 247.385 120.791C238.687 104.987 229.5 91.5609 220.628 82.3652C217.309 78.9037 214.096 76.1416 211.057 74.1486C208.227 72.2955 205.607 71.1067 203.197 70.7221H203.127C202.568 70.6172 202.114 70.5822 201.765 70.5472C201.625 70.5472 201.765 70.4424 201.695 70.4773C201.66 70.4773 201.66 70.5472 201.486 70.6871C201.171 70.9668 200.717 71.3864 200.193 71.9109C199.739 72.3304 199.285 72.8549 198.866 73.3444L198.726 73.6241C194.674 82.0156 193.277 95.3021 194.15 111.491C195.058 127.924 198.342 147.259 203.686 167.329C218.881 163.832 230.758 167.049 238.932 173.867C243.717 177.853 247.175 183.028 249.306 188.797C251.402 194.531 252.17 200.86 251.542 207.188C250.354 219.636 243.682 231.943 231.142 239.565ZM275.574 312.606C274.876 312.711 274.177 312.711 273.478 312.606C272.815 312.501 272.151 312.326 271.522 312.012C270.579 311.837 269.636 311.662 268.728 311.452C262.126 310.089 255.699 308.236 248.782 306.278L248.328 306.138C224.61 299.39 194.954 290.928 147.447 296.802C146.819 298.62 146.295 300.578 145.876 302.501C145.456 304.529 145.212 306.557 145.177 308.41C145.177 309.879 145.317 311.242 145.631 312.361C145.876 313.201 146.26 313.9 146.784 314.389L147.622 315.159C151.499 318.69 153.386 320.438 154.469 324.424C155.342 327.641 154.958 330.613 154.189 336.487C154.084 337.291 154.014 338.095 153.875 338.899C153.525 341.732 153.98 343.375 154.818 344.389C155.691 345.438 157.193 346.102 158.73 346.731L158.905 346.801C163.795 348.899 168.685 351.032 171.2 357.99C171.48 358.619 171.655 359.319 171.724 360.018C171.794 360.717 171.794 361.417 171.655 362.151V362.186C170.572 367.815 168.266 372.116 165.367 375.787C162.538 379.388 159.184 382.255 155.866 385.122L155.097 385.787C153.945 386.766 152.827 387.745 151.744 388.794L151.185 389.283C143.605 395.332 137.143 397.5 131.449 396.905C125.685 396.311 120.9 392.885 116.848 387.78C114.053 384.283 111.748 379.983 109.687 375.402C107.661 370.857 105.914 366.067 104.238 361.417C103.784 360.123 103.295 358.829 102.806 357.535C97.6359 343.585 93.8284 326.627 89.9161 309.11C88.6586 309.459 87.4011 309.879 86.1436 310.229C84.1874 310.823 82.2662 311.382 80.4149 311.977C78.5286 312.571 76.6773 313.166 74.8609 313.725L74.7561 313.76C74.4766 313.83 74.267 313.935 74.0924 314.005L73.9876 314.04C72.6602 314.599 71.6821 314.984 70.5644 315.089C69.5514 315.194 68.6082 315.089 67.4904 314.669C57.3954 317.466 48.0688 316.627 39.7552 313.27C30.3239 309.424 22.2199 302.257 15.7926 293.271L15.7227 293.201C13.3125 289.739 11.1468 286.033 9.22557 282.117C7.26944 278.166 5.62768 274.04 4.26538 269.845C2.90307 265.649 1.85514 261.348 1.15652 257.048C0.457901 252.782 0.07366 248.516 0.00379804 244.321C-0.100995 233.761 1.95993 223.761 6.53589 215.685C10.6577 208.447 16.8056 202.783 25.1541 199.636C25.4685 199.146 25.713 198.727 25.9924 198.377C26.4465 197.783 26.9356 197.258 27.5993 196.699L27.739 196.594C28.4376 196 29.1013 195.615 29.8698 195.23C30.5684 194.916 31.3718 194.601 32.4547 194.216L33.4327 193.867C77.83 177.503 108.534 156.595 130.576 136.141C152.617 115.686 166.031 95.6867 175.707 81.1415L175.916 80.8268C181.33 72.715 185.697 66.2466 190.063 61.8761C191.181 60.7572 192.159 59.8481 193.207 59.0789C194.29 58.2747 195.408 57.6454 196.7 57.1559C198.062 56.6664 199.39 56.3866 200.822 56.3167C202.219 56.2468 203.721 56.3866 205.468 56.6664C209.59 57.3307 213.781 59.0439 218.008 61.7012C222.304 64.3935 226.636 68.0648 230.932 72.5402C240.504 82.4701 250.354 96.8055 259.611 113.554C269.252 130.966 278.264 150.965 285.669 171.42C293.284 192.398 299.292 213.867 302.681 233.552C305.79 251.698 306.698 268.376 304.532 281.698C303.624 287.292 302.192 292.397 300.201 296.802C298.244 301.138 295.694 304.879 292.551 307.921C292.411 308.061 292.236 308.201 292.097 308.34C291.887 308.48 291.677 308.655 291.468 308.795C289.407 310.159 287.416 311.138 285.425 311.767C283.399 312.431 281.373 312.746 279.347 312.851H279.207C278.508 312.851 277.845 312.851 277.216 312.816C276.727 312.711 276.133 312.676 275.574 312.606ZM361.539 274.39C356.684 274.6 352.632 270.824 352.457 265.964C352.248 261.103 356.02 257.048 360.876 256.873L422.354 254.565C427.175 254.425 431.227 258.201 431.436 262.992C431.611 267.852 427.873 271.908 423.018 272.117L361.539 274.39ZM359.793 214.601C354.972 215.23 350.571 211.839 349.942 207.083C349.313 202.258 352.702 197.853 357.452 197.223L414.25 189.671C419.071 189.042 423.472 192.433 424.101 197.188C424.729 202.014 421.341 206.419 416.591 207.048L359.793 214.601ZM347.846 159.707C343.27 161.28 338.24 158.867 336.668 154.287C335.062 149.707 337.507 144.672 342.083 143.098L400.313 122.854C404.889 121.211 409.919 123.693 411.491 128.274C413.097 132.854 410.652 137.889 406.076 139.462L347.846 159.707ZM320.391 106.875C316.199 109.288 310.82 107.819 308.444 103.589C306.034 99.3929 307.501 94.0434 311.728 91.6308L366.919 59.953C371.11 57.5405 376.49 59.009 378.865 63.2397C381.275 67.4354 379.808 72.785 375.582 75.1975L320.391 106.875Z" fill="black" fill-opacity="0.05"/>
</svg>
