<svg width="301" height="301" viewBox="0 0 301 301" fill="none" xmlns="http://www.w3.org/2000/svg">
<path d="M173.094 101.502C173.094 101.237 173.183 100.884 173.271 100.532L189.696 46.6621C190.668 43.5709 194.642 42.0695 198.704 42.0695C202.766 42.0695 206.741 43.5703 207.712 46.6621L224.226 100.532C224.314 100.886 224.402 101.237 224.402 101.502C224.402 104.77 219.369 107.155 215.571 107.155C213.363 107.155 211.597 106.448 211.067 104.594L208.064 93.5552H189.43L186.428 104.594C185.897 106.448 184.132 107.155 181.924 107.155C178.127 107.154 173.094 104.77 173.094 101.502ZM205.151 82.9561L198.704 59.2894L192.257 82.9561H205.151Z" fill="black" fill-opacity="0.05"/>
<path d="M226.422 58.6038V52.3352H220.154C218.344 52.3352 217.117 50.7196 217.117 48.2646C217.117 45.9383 218.345 44.1294 220.154 44.1294H226.422V37.926C226.422 36.3751 228.231 34.8248 230.557 34.8248C233.013 34.8248 234.628 36.3751 234.628 37.926V44.1294H240.832C242.383 44.1294 243.934 45.9383 243.934 48.2646C243.934 50.7196 242.383 52.3352 240.832 52.3352H234.628V58.6038C234.628 60.4128 233.013 61.6403 230.557 61.6403C228.231 61.6409 226.422 60.4134 226.422 58.6038Z" fill="black" fill-opacity="0.05"/>
<path d="M244.989 301H56.0107C38.8743 301 24.9324 287.058 24.9324 269.921V68.2664C24.9324 58.9084 28.5744 50.1136 35.19 43.5004L68.4316 10.2569C73.7861 4.90242 80.8591 1.38389 88.3488 0.348031C89.9214 0.116402 91.5528 0 93.1983 0H244.988C262.125 0 276.066 13.9418 276.066 31.0788V191.348C276.066 196.147 272.175 200.038 267.377 200.038C262.578 200.038 258.687 196.147 258.687 191.348V31.0788C258.687 23.5256 252.543 17.3792 244.989 17.3792H93.1983C92.3841 17.3792 91.5933 17.4351 90.8479 17.5462C90.815 17.5515 90.7826 17.5556 90.7503 17.5603C86.9813 18.077 83.4187 19.8472 80.7215 22.5456L47.4786 55.7896C44.1471 59.1206 42.3128 63.5516 42.3128 68.2659V269.921C42.3128 277.474 48.4575 283.621 56.0113 283.621H244.989C252.543 283.621 258.688 277.476 258.688 269.921V241.309C258.688 236.511 262.579 232.62 267.377 232.62C272.176 232.62 276.067 236.511 276.067 241.309V269.921C276.066 287.058 262.124 301 244.989 301Z" fill="black" fill-opacity="0.05"/>
<path d="M218.278 200.037H89.5704C84.772 200.037 80.8808 196.146 80.8808 191.348C80.8808 186.549 84.772 182.658 89.5704 182.658H218.278C223.077 182.658 226.968 186.549 226.968 191.348C226.968 196.146 223.078 200.037 218.278 200.037Z" fill="black" fill-opacity="0.05"/>
<path d="M218.278 149.197H89.5704C84.772 149.197 80.8808 145.306 80.8808 140.508C80.8808 135.709 84.772 131.818 89.5704 131.818H218.278C223.077 131.818 226.968 135.709 226.968 140.508C226.969 145.306 223.078 149.197 218.278 149.197Z" fill="black" fill-opacity="0.05"/>
<path d="M218.278 250.878H89.5704C84.772 250.878 80.8808 246.987 80.8808 242.189C80.8808 237.39 84.772 233.499 89.5704 233.499H218.278C223.077 233.499 226.968 237.39 226.968 242.189C226.968 246.987 223.078 250.878 218.278 250.878Z" fill="black" fill-opacity="0.05"/>
</svg>
