<svg width="363" height="363" viewBox="0 0 363 363" fill="none" xmlns="http://www.w3.org/2000/svg">
<path d="M86.9924 16.5335L88.1976 32.039L76.3576 42.142L91.5299 45.8075L97.4853 60.1644L105.639 46.9206L121.095 45.6799L111.027 33.8327L114.643 18.7172L100.25 24.6372L86.9924 16.5335ZM328.969 22.6875C325.96 22.6875 323.075 23.8826 320.947 26.01C318.82 28.1374 317.625 31.0227 317.625 34.0312C317.625 37.0398 318.82 39.9251 320.947 42.0525C323.075 44.1799 325.96 45.375 328.969 45.375C331.977 45.375 334.863 44.1799 336.99 42.0525C339.117 39.9251 340.312 37.0398 340.312 34.0312C340.312 31.0227 339.117 28.1374 336.99 26.01C334.863 23.8826 331.977 22.6875 328.969 22.6875ZM170.014 30.1318C167.006 30.1318 164.121 31.327 161.993 33.4543C159.866 35.5817 158.671 38.467 158.671 41.4756C158.671 44.4841 159.866 47.3695 161.993 49.4968C164.121 51.6242 167.006 52.8193 170.014 52.8193C173.023 52.8193 175.908 51.6242 178.036 49.4968C180.163 47.3695 181.358 44.4841 181.358 41.4756C181.358 38.467 180.163 35.5817 178.036 33.4543C175.908 31.327 173.023 30.1318 170.014 30.1318ZM300.397 34.9813C293.874 36.2149 287.848 40.0718 282.034 45.1056C276.646 49.7352 271.612 55.4993 267.358 61.7313C254.029 63.8653 240.7 69.2961 231.767 76.7121C220.352 86.0707 210.214 102.094 204.684 118.613C199.437 120.811 194.474 123.434 190.433 126.27C179.444 133.998 173.772 148.816 169.589 161.719C165.406 174.694 163.35 186.037 163.35 186.037L175.97 188.306C175.97 188.306 177.884 177.671 181.713 165.69C185.612 153.708 192.206 140.662 197.807 136.763C198.728 136.125 199.934 135.416 200.997 134.778C200.572 138.819 200.572 142.86 201.21 146.689C202.486 154.771 206.882 162.499 214.68 166.682C220.211 169.66 226.45 168.951 231.696 166.824C236.943 164.626 241.622 161.01 245.663 156.756C249.704 152.503 253.037 147.469 255.022 142.151C257.007 136.834 257.716 130.808 255.163 125.207H255.093C252.328 119.251 247.01 115.423 241.338 113.792C235.666 112.161 229.569 112.232 223.472 113.154C222.408 113.296 221.416 113.65 220.352 113.863C225.599 102.661 233.114 92.0971 239.849 86.4961C244.245 82.8803 251.619 79.4062 259.488 76.8539C258.496 79.548 257.716 82.2422 257.361 85.0072C256.227 92.4516 257.858 100.534 263.813 106.064C268.138 110.034 273.952 110.672 279.056 109.822C284.09 108.971 288.982 106.702 293.378 103.795C297.773 100.818 301.673 97.1308 304.438 92.806C307.203 88.4812 309.046 82.9512 307.274 77.4211V77.3502C304.934 70.2107 299.12 65.3045 292.669 62.9791C289.904 61.9865 286.997 61.4264 284.019 61.0932C286.075 58.7819 288.202 56.6195 290.329 54.769C295.15 50.6286 300.042 48.0337 302.807 47.5161L300.397 34.9813ZM123.93 59.8312L113.154 66.6091L137.614 105.78L97.6271 107.837L116.415 148.816L128.043 143.428L117.053 119.606L160.018 117.408L123.93 59.8312ZM277.355 73.5217C281.679 73.4508 285.508 73.9471 288.344 75.0105C292.172 76.3576 294.087 78.0592 295.079 81.2496C295.363 82.0295 295.221 83.5892 293.732 85.9289C292.172 88.3394 289.407 91.0336 286.288 93.1605C283.097 95.2875 279.553 96.7764 276.929 97.2018C274.235 97.698 273.03 97.2017 272.463 96.7055C269.981 94.4367 269.272 91.6008 269.981 86.8506C270.548 83.0221 272.321 78.4137 274.944 73.6635C275.795 73.6635 276.575 73.5217 277.355 73.5217ZM67.3464 87.2051C64.3379 87.2051 61.4525 88.4002 59.3252 90.5276C57.1978 92.6549 56.0027 95.5403 56.0027 98.5488C56.0027 101.557 57.1978 104.443 59.3252 106.57C61.4525 108.697 64.3379 109.893 67.3464 109.893C68.8367 109.893 70.3125 109.601 71.6897 109.031C73.0668 108.461 74.3181 107.626 75.3722 106.573C76.4264 105.519 77.2626 104.268 77.8331 102.892C78.4036 101.515 78.6972 100.039 78.6972 98.5488C78.6972 97.0585 78.4036 95.5829 77.8331 94.2061C77.2626 92.8294 76.4264 91.5785 75.3722 90.5251C74.3181 89.4716 73.0668 88.6362 71.6897 88.0665C70.3125 87.4969 68.8367 87.2041 67.3464 87.2051ZM319.823 113.579L309.613 125.348L294.158 124.072L302.24 137.401L296.214 151.723L311.386 148.178L323.155 158.316L324.502 142.789L337.76 134.707L323.439 128.681L319.823 113.579ZM232.263 125.278C234.319 125.348 236.234 125.632 237.722 126.057C240.771 126.908 242.402 128.184 243.536 130.595C244.174 131.942 244.245 134.423 243.04 137.685C241.835 141.017 239.353 144.846 236.375 148.036C233.398 151.226 229.782 153.779 226.804 154.984C223.826 156.189 221.983 156.118 220.778 155.48H220.707C216.595 153.212 214.61 149.95 213.83 144.704C213.121 140.237 213.617 134.565 215.106 128.468C218.58 127.263 222.054 126.27 225.386 125.774C227.868 125.419 230.136 125.278 232.263 125.278ZM88.7648 162.074C83.6601 161.932 80.4697 163.137 78.4845 165.122C76.4994 167.108 75.2941 170.298 75.4359 175.403C75.5777 180.578 77.2793 187.385 80.5406 194.971C87.0633 210.214 99.8959 228.577 117.124 245.876C134.353 263.104 152.786 275.866 168.029 282.388C175.545 285.65 182.351 287.351 187.526 287.493C192.702 287.706 195.821 286.43 197.807 284.445C199.792 282.459 201.068 279.34 200.855 274.164C200.713 268.989 199.012 262.182 195.751 254.596C189.228 239.424 176.466 220.99 159.238 203.762C142.01 186.463 123.576 173.701 108.333 167.179C100.747 163.917 93.9404 162.216 88.7648 162.074ZM253.249 184.265L229.853 222.55L209.221 202.77L200.43 211.986L232.405 242.685L256.369 203.549L283.806 226.45L347.119 199.366L342.156 187.597L285.933 211.703L253.249 184.265ZM66.2404 193.269L53.7339 234.319C83.0929 269.13 117.337 288.698 154.488 301.46L169.802 296.781C167.604 296.001 165.264 295.079 162.925 294.087C145.625 286.713 126.27 273.101 108.12 254.88C89.8992 236.659 76.2867 217.304 68.8849 200.004C67.8852 197.736 67.0061 195.467 66.2404 193.269ZM49.3524 248.712L39.4195 281.325C59.9021 300.468 81.2496 309.117 103.653 316.916L134.423 307.557C103.795 295.079 74.8687 276.858 49.3524 248.712ZM260.906 249.562C257.898 249.562 255.012 250.758 252.885 252.885C250.758 255.012 249.562 257.898 249.562 260.906C249.562 263.915 250.758 266.8 252.885 268.927C255.012 271.055 257.898 272.25 260.906 272.25C263.915 272.25 266.8 271.055 268.927 268.927C271.055 266.8 272.25 263.915 272.25 260.906C272.25 257.898 271.055 255.012 268.927 252.885C266.8 250.758 263.915 249.562 260.906 249.562ZM35.3145 294.867L20.9292 342.085L83.5183 323.013C67.3748 316.562 51.061 308.337 35.3145 294.867Z" fill="black" fill-opacity="0.05"/>
</svg>
